# xmcd
#
# Track frame offsets: 
#        150
#        22053
#        38003
#        52943
#        67783
#        85358
#        100720
#        117258
#        139983
#        166750
#
# Disc length: 2591 seconds
#
# Revision: 0
# Processed by: cddbd v1.5.2PL0 Copyright (c) Steve Scherf et al.
# Submitted via: ExactAudioCopy v0.95b4
#
DISCID=780a1d0a
DTITLE=Dessau - Exercise In Tension
DYEAR=1989
DGENRE=Industrial
TTITLE0=Never Change
TTITLE1=No Way
TTITLE2=Move Seoul
TTITLE3=Principal Tension
TTITLE4=More Than Mad
TTITLE5=Europe Light
TTITLE6=Shovel
TTITLE7=Isolation
TTITLE8=Crowfest
TTITLE9=Imperial Hotel [remix]
EXTD=
EXTT0=
EXTT1=
EXTT2=
EXTT3=
EXTT4=
EXTT5=
EXTT6=
EXTT7=
EXTT8=
EXTT9=
PLAYORDER=
